<svg width="521" height="498" viewBox="0 0 521 498" fill="none" xmlns="http://www.w3.org/2000/svg">
<path d="M365.787 40.8563C298.987 -45.9437 133.287 21.3563 79.2872 96.3564C-72.2128 295.856 79.2872 258.856 139.787 425.356C200.287 591.856 331.287 432.356 466.287 332.856C601.287 233.356 449.287 149.356 365.787 40.8563Z" fill="#F8C4CD"/>
<path d="M266.529 100.972C171.729 110.972 131 18 91.5292 5.47238C-6.47083 -30.0276 -34.4708 117.472 50.5292 152.472C135.529 187.472 79.0292 185.472 122.529 330.472C166.029 475.472 455.029 433.972 498.029 258.972C541.029 83.9724 385.029 88.4724 266.529 100.972Z" fill="#FF4E02"/>
<!-- <circle cx="410.5" cy="85.5" r="33.5" fill="#A43001"/> -->
</svg>
