<svg width="1671" height="598" viewBox="0 0 1671 598" fill="none" xmlns="http://www.w3.org/2000/svg">
<g opacity="0.1">
<path d="M0.483398 600.528L88.5192 606.34C176.552 612.147 352.618 623.76 489.651 556.202C626.684 488.643 724.685 341.912 861.718 274.354C998.751 206.795 1174.82 218.408 1311.85 150.849C1448.88 83.2907 1546.88 -63.44 1595.88 -136.805L1644.88 -210.177" stroke="#FF4E02" stroke-width="2"/>
<path d="M126.594 856.325L176.346 784.483C226.094 712.636 325.595 568.947 462.628 501.388C599.661 433.83 774.227 442.401 911.26 374.842C1048.29 307.284 1147.79 163.595 1284.83 96.0361C1421.86 28.4774 1596.43 37.0489 1683.71 41.3376L1770.99 45.6204" stroke="#FF4E02" stroke-width="2"/>
<path d="M23.0049 646.209L111.038 652.016C199.071 657.823 375.139 669.442 512.172 601.883C649.206 534.325 747.203 387.588 884.236 320.029C1021.27 252.47 1197.34 264.09 1334.37 196.531C1471.4 128.972 1569.4 -17.7644 1618.4 -91.1297L1667.4 -164.495" stroke="#FF4E02" stroke-width="2"/>
<path d="M153.618 911.138L202.618 837.773C251.618 764.407 349.616 617.671 486.649 550.112C623.682 482.553 799.751 494.172 936.784 426.614C1073.82 359.055 1171.81 212.318 1308.85 144.76C1445.88 77.2009 1621.95 88.8203 1709.98 94.6269L1798.02 100.434" stroke="#FF4E02" stroke-width="2"/>
<path d="M45.5244 691.885L133.557 697.692C221.59 703.499 397.659 715.118 534.692 647.559C671.725 580 769.723 433.264 906.756 365.705C1043.79 298.146 1219.86 309.766 1356.89 242.207C1493.92 174.648 1591.92 27.9115 1640.92 -45.4538L1689.92 -118.819" stroke="#FF4E02" stroke-width="2"/>
<path d="M176.137 956.814L225.137 883.448C274.137 810.083 372.135 663.346 509.168 595.787C646.201 528.229 822.27 539.848 959.303 472.289C1096.34 404.731 1194.33 257.994 1331.37 190.435C1468.4 122.876 1644.47 134.496 1732.5 140.302L1820.53 146.109" stroke="#FF4E02" stroke-width="2"/>
<path d="M72.5479 746.698L159.829 750.981C247.114 755.269 421.68 763.841 558.713 696.282C695.746 628.724 795.246 485.035 932.28 417.476C1069.31 349.917 1243.88 358.489 1380.91 290.93C1517.94 223.371 1617.45 79.6824 1667.19 7.83499L1716.95 -64.0064" stroke="#FF4E02" stroke-width="2"/>
<path d="M198.658 1002.5L247.655 929.124C296.656 855.758 394.656 709.028 531.689 641.469C668.722 573.91 844.788 585.524 981.821 517.965C1118.85 450.406 1216.85 303.675 1353.89 236.117C1490.92 168.558 1666.99 180.171 1755.02 185.978L1843.06 191.791" stroke="#FF4E02" stroke-width="2"/>
<path d="M95.0654 792.374L182.35 796.663C269.631 800.946 444.198 809.517 581.231 741.958C718.264 674.4 817.764 530.711 954.797 463.152C1091.83 395.593 1266.4 404.165 1403.43 336.606C1540.46 269.047 1639.96 125.359 1689.71 53.5172L1739.46 -18.3303" stroke="#FF4E02" stroke-width="2"/>
<path d="M221.177 1048.17L270.177 974.806C319.177 901.44 417.175 754.704 554.208 687.145C691.241 619.586 867.31 631.205 1004.34 563.647C1141.38 496.088 1239.37 349.351 1376.41 281.793C1513.44 214.234 1689.51 225.853 1777.54 231.66L1865.57 237.467" stroke="#FF4E02" stroke-width="2"/>
</g>
</svg>
